#!OML:ASF H:\Pregnant\Project 1\Capture day 1\Session 1\femalepreg.ASF
:FULLY-SPECIFIED
:DEGREES
192
root 5.68198 15.4166 9.90691 -154.237 -21.3263 -181.971
lowerback -13.5803 2.5604 5.30979
upperback -5.50188 1.41017 6.8307
thorax 1.7888 0.23084 4.39047
lowerneck -12.9966 -3.47745 1.02598
upperneck 37.4231 -8.92185 -1.93528
head 15.0866 -5.07725 -2.74741
rclavicle 1.23246e-014 1.90833e-014
rhumerus -36.8181 -9.54352 -55.3913
rradius 37.5084
rwrist -5.82388
rhand -15.0266 -21.0917
rfingers 7.12502
rthumb 11.1391 -50.7761
lclavicle 1.23246e-014 1.90833e-014
lhumerus -45.9659 6.09582 76.7747
lradius 39.2137
lwrist 46.8048
lhand -33.8487 -7.88602
lfingers 7.12502
lthumb -7.03348 21.9771
rfemur -60.5385 -4.17736 20.517
rtibia 49.6182
rfoot -9.91566 -4.7259
rtoes -14.1377
lfemur -17.3306 -11.9224 -15.8123
ltibia 39.5805
lfoot 5.90468 -17.9234
ltoes -25.9167
193
root 5.67979 15.4383 9.81224 -154.008 -21.3262 -182.13
lowerback -13.5207 2.52886 5.8753
upperback -5.56358 1.27812 6.89127
thorax 1.70965 0.145681 4.11478
lowerneck -13.0713 -3.34438 1.3189
upperneck 37.3359 -8.71868 -2.06991
head 15.0407 -4.96515 -2.81732
rclavicle 5.40694e-014 1.24042e-013
rhumerus -36.179 -10.0762 -55.6119
rradius 37.8244
rwrist -5.93392
rhand -15.6427 -21.2811
rfingers 7.12502
rthumb 10.5449 -50.9966
lclavicle 5.40694e-014 1.24042e-013
lhumerus -46.3513 6.88997 76.0577
lradius 38.5131
lwrist 47.9209
lhand -34.4561 -7.32423
lfingers 7.12502
lthumb -7.61981 22.5185
rfemur -60.3051 -4.27117 20.5401
rtibia 49.5494
rfoot -10.2814 -4.76095
rtoes -13.9378
lfemur -19.4431 -11.9513 -15.9735
ltibia 43.0523
lfoot 5.68911 -17.0027
ltoes -26.1469
194
root 5.67754 15.4592 9.72223 -153.833 -21.2717 -182.254
lowerback -13.4062 2.51693 6.43669
upperback -5.60071 1.1818 6.94749
thorax 1.62333 0.0794353 3.8421
lowerneck -13.1262 -3.23727 1.60101
upperneck 37.2062 -8.54639 -2.19387
head 14.9716 -4.86543 -2.88175
rclavicle -3.89618e-014 -8.26944e-014
rhumerus -35.6009 -10.5709 -55.8634
rradius 38.2703
rwrist -6.14793
rhand -16.1243 -21.4188
rfingers 7.12502
rthumb 10.0803 -51.1573
lclavicle -3.89618e-014 -8.26944e-014
lhumerus -46.6108 7.42064 75.4918
lradius 37.706
lwrist 49.009
lhand -34.863 -6.65071
lfingers 7.12502
lthumb -8.0125 23.1774
rfemur -60.0324 -4.32005 20.5685
rtibia 49.447
rfoot -10.6156 -4.75295
rtoes -13.7724
lfemur -21.5344 -11.9424 -16.165
ltibia 46.5504
lfoot 5.3133 -16.0171
ltoes -26.1357
195
root 5.67576 15.4792 9.63618 -153.715 -21.1577 -182.331
lowerback -13.2483 2.52812 6.98894
upperback -5.60621 1.12444 7.00632
thorax 1.54412 0.0339802 3.58363
lowerneck -13.1795 -3.15569 1.86713
upperneck 37.0421 -8.40316 -2.3074
head 14.8874 -4.77733 -2.94096
rclavicle 1.55052e-014 -2.54444e-014
rhumerus -35.062 -11.0303 -56.1376
rradius 38.8243
rwrist -6.46216
rhand -16.4663 -21.4949
rfingers 7.12502
rthumb 9.75025 -51.2492
lclavicle 1.55052e-014 -2.54444e-014
lhumerus -46.7333 7.68354 75.0994
lradius 36.8006
lwrist 50.0295
lhand -35.0418 -5.8325
lfingers 7.12502
lthumb -8.18515 23.989
rfemur -59.7163 -4.30651 20.6115
rtibia 49.3032
rfoot -10.9157 -4.70971
rtoes -13.626
lfemur -23.5934 -11.8803 -16.3713
ltibia 50.0509
lfoot 4.77644 -15.0592
ltoes -25.9847
196
root 5.67486 15.4988 9.55374 -153.651 -20.9886 -182.352
lowerback -13.0498 2.56614 7.53153
upperback -5.58491 1.10947 7.07459
thorax 1.46932 0.010392 3.3473
lowerneck -13.2313 -3.10063 2.10591
upperneck 36.8466 -8.28814 -2.4101
head 14.7902 -4.70216 -2.99293
rclavicle -5.36719e-014 9.54166e-015
rhumerus -34.5681 -11.46 -56.4168
rradius 39.4732
rwrist -6.86551
rhand -16.6634 -21.5014
rfingers 7.12502
rthumb 9.56014 -51.2645
lclavicle -5.36719e-014 9.54166e-015
lhumerus -46.7269 7.69311 74.8907
lradius 35.8066
lwrist 50.9236
lhand -34.97 -4.86658
lfingers 7.12502
lthumb -8.11585 24.9576
rfemur -59.3566 -4.2202 20.6785
rtibia 49.1085
rfoot -11.1686 -4.64591
rtoes -13.5094
lfemur -25.62 -11.7607 -16.5738
ltibia 53.526
lfoot 4.17045 -14.2234
ltoes -25.5818
197
root 5.67446 15.5187 9.47452 -153.629 -20.7694 -182.315
lowerback -12.8281 2.61945 8.05309
upperback -5.53803 1.11864 7.16649
thorax 1.40764 -0.000666103 3.15206
lowerneck -13.28 -3.05667 2.32962
upperneck 36.622 -8.17746 -2.51332
head 14.68 -4.63002 -3.04079
rclavicle -4.37326e-014 -2.8625e-014
rhumerus -34.0852 -11.8135 -56.7109
rradius 40.1774
rwrist -7.35649
rhand -16.7871 -21.4136
rfingers 7.12502
rthumb 9.44081 -51.1821
lclavicle -4.37326e-014 -2.8625e-014
lhumerus -46.62 7.51884 74.8485
lradius 34.7425
lwrist 51.6234
lhand -34.5938 -3.7557
lfingers 7.12502
lthumb -7.75275 26.0822
rfemur -58.9567 -4.05409 20.7677
rtibia 48.8534
rfoot -11.3738 -4.57731
rtoes -13.3837
lfemur -27.6201 -11.5742 -16.7632
ltibia 56.9444
lfoot 3.50377 -13.554
ltoes -25.1567
198
root 5.67438 15.5396 9.39781 -153.641 -20.5119 -182.231
lowerback -12.5885 2.68172 8.54784
upperback -5.47448 1.14386 7.28
thorax 1.35293 -0.00354606 2.99757
lowerneck -13.3172 -3.02337 2.52478
upperneck 36.3772 -8.07414 -2.60856
head 14.5605 -4.56379 -3.0797
rclavicle 1.70955e-014 -8.5875e-014
rhumerus -33.6231 -12.0805 -57.0159
rradius 40.9296
rwrist -7.91757
rhand -16.8295 -21.2479
rfingers 7.12502
rthumb 9.39988 -51.0183
lclavicle 1.70955e-014 -8.5875e-014
lhumerus -46.4474 7.18736 74.953
lradius 33.6402
lwrist 52.1041
lhand -33.913 -2.52839
lfingers 7.12502
lthumb -7.09556 27.3327
rfemur -58.517 -3.83053 20.8807
rtibia 48.5384
rfoot -11.5382 -4.50804
rtoes -13.2561
lfemur -29.5864 -11.3348 -16.9404
ltibia 60.2734
lfoot 2.85177 -13.0631
ltoes -24.649
199
root 5.67412 15.5619 9.32353 -153.67 -20.2168 -182.125
lowerback -12.3259 2.74673 8.99284
upperback -5.40632 1.1808 7.41608
thorax 1.28954 -0.000882712 2.8964
lowerneck -13.3531 -2.9925 2.68081
upperneck 36.1346 -7.96944 -2.69277
head 14.4456 -4.501 -3.10757
rclavicle 9.14409e-015 9.85972e-014
rhumerus -33.1749 -12.2446 -57.3184
rradius 41.7072
rwrist -8.53712
rhand -16.8135 -21.0494
rfingers 7.12502
rthumb 9.41527 -50.8191
lclavicle 9.14409e-015 9.85972e-014
lhumerus -46.2369 6.77689 75.1715
lradius 32.504
lwrist 52.2845
lhand -32.8742 -1.25427
lfingers 7.12502
lthumb -6.09278 28.6381
rfemur -58.0499 -3.55185 20.9896
rtibia 48.1726
rfoot -11.6629 -4.45566
rtoes -13.1278
lfemur -31.521 -11.0486 -17.1266
ltibia 63.4834
lfoot 2.22603 -12.7224
ltoes -24.2366
200
root 5.67312 15.5856 9.25133 -153.699 -19.8934 -182.026
lowerback -12.0765 2.80535 9.36743
upperback -5.32075 1.21547 7.56802
thorax 1.25018 0.00277843 2.85153
lowerneck -13.4016 -2.96335 2.80625
upperneck 35.8911 -7.85988 -2.77244
head 14.3361 -4.43886 -3.12827
rclavicle 6.08281e-014 2.13097e-013
rhumerus -32.7085 -12.3154 -57.6273
rradius 42.4843
rwrist -9.19418
rhand -16.7652 -20.8328
rfingers 7.12502
rthumb 9.46188 -50.6004
lclavicle 6.08281e-014 2.13097e-013
lhumerus -45.9843 6.33909 75.4771
lradius 31.3657
lwrist 52.1556
lhand -31.5069 -0.00150085
lfingers 7.12502
lthumb -4.77259 29.9247
rfemur -57.574 -3.24829 21.0745
rtibia 47.7777
rfoot -11.7639 -4.41896
rtoes -13.0017
lfemur -33.4289 -10.7378 -17.3458
ltibia 66.5504
lfoot 1.67836 -12.5027
ltoes -23.8487
201
root 5.67171 15.6101 9.18083 -153.728 -19.5469 -181.964
lowerback -11.8212 2.85229 9.66259
upperback -5.22751 1.24933 7.71324
thorax 1.21424 0.00892616 2.84314
lowerneck -13.4679 -2.9335 2.90288
upperneck 35.6715 -7.7525 -2.83951
head 14.2447 -4.37967 -3.14205
rclavicle -2.10712e-014 -1.36764e-013
rhumerus -32.2515 -12.3137 -57.948
rradius 43.264
rwrist -9.89279
rhand -16.6854 -20.6
rfingers 7.12502
rthumb 9.53887 -50.364
lclavicle -2.10712e-014 -1.36764e-013
lhumerus -45.7134 5.89593 75.8218
lradius 30.2509
lwrist 51.6772
lhand -29.8489 1.16351
lfingers 7.12502
lthumb -3.17152 31.1197
rfemur -57.0898 -2.92523 21.1045
rtibia 47.3787
rfoot -11.8529 -4.41546
rtoes -12.8868
lfemur -35.2933 -10.4188 -17.6249
ltibia 69.4561
lfoot 1.21232 -12.3853
ltoes -23.4752
202
root 5.6699 15.6351 9.11218 -153.751 -19.1857 -181.967
lowerback -11.5704 2.88128 9.85615
upperback -5.12315 1.27647 7.84582
thorax 1.19046 0.0162677 2.87626
lowerneck -13.5447 -2.90435 2.9767
upperneck 35.4668 -7.64595 -2.90067
head 14.1647 -4.32288 -3.15134
rclavicle 3.02153e-014 1.68569e-013
rhumerus -31.7961 -12.2571 -58.2744
rradius 44.0163
rwrist -10.6281
rhand -16.6658 -20.2608
rfingers 7.12502
rthumb 9.55784 -50.024
lclavicle 3.02153e-014 1.68569e-013
lhumerus -45.4298 5.49109 76.181
lradius 29.1922
lwrist 50.8373
lhand -27.9559 2.17907
lfingers 7.12502
lthumb -1.34328 32.1546
rfemur -56.6096 -2.59231 21.0498
rtibia 47.0003
rfoot -11.933 -4.45635
rtoes -12.7831
lfemur -37.1167 -10.1075 -17.9877
ltibia 72.1909
lfoot 0.832367 -12.3224
ltoes -23.1657
203
root 5.66834 15.6603 9.04426 -153.769 -18.8117 -182.043
lowerback -11.3113 2.88322 9.94308
upperback -5.02212 1.29029 7.95393
thorax 1.15614 0.0211814 2.93944
lowerneck -13.6174 -2.8655 3.03818
upperneck 35.2964 -7.53579 -2.95224
head 14.1013 -4.26631 -3.15668
rclavicle 1.51076e-014 -6.36111e-015
rhumerus -31.3671 -12.1445 -58.6225
rradius 44.7377
rwrist -11.3859
rhand -16.6807 -19.8239
rfingers 7.12502
rthumb 9.54338 -49.5878
lclavicle 1.51076e-014 -6.36111e-015
lhumerus -45.1794 5.13842 76.5107
lradius 28.2302
lwrist 49.6462
lhand -25.8942 3.01675
lfingers 7.12502
lthumb 0.647913 32.9955
rfemur -56.1272 -2.24002 20.8969
rtibia 46.6562
rfoot -12.0149 -4.55647
rtoes -12.6798
lfemur -38.8838 -9.81467 -18.4421
ltibia 74.7449
lfoot 0.397532 -12.2616
ltoes -23.3088
204
root 5.66729 15.6856 8.97669 -153.782 -18.4294 -182.188
lowerback -11.0565 2.86678 9.93345
upperback -4.92198 1.29847 8.03375
thorax 1.12119 0.0276885 3.02445
lowerneck -13.6962 -2.82454 3.0817
upperneck 35.1558 -7.43151 -2.98819
head 14.0549 -4.21312 -3.15616
rclavicle 4.45278e-014 4.77083e-014
rhumerus -30.9661 -12.0088 -58.9824
rradius 45.4221
rwrist -12.1444
rhand -16.7317 -19.2923
rfingers 7.12502
rthumb 9.49419 -49.0584
lclavicle 4.45278e-014 4.77083e-014
lhumerus -44.9587 4.82353 76.8165
lradius 27.4029
lwrist 48.1535
lhand -23.7606 3.64454
lfingers 7.12502
lthumb 2.70857 33.6071
rfemur -55.6495 -1.86605 20.6537
rtibia 46.35
rfoot -12.0848 -4.71853
rtoes -12.6276
lfemur -40.6029 -9.53643 -18.978
ltibia 77.1205
lfoot -0.0341078 -12.178
ltoes -23.6183
205
root 5.66709 15.711 8.90885 -153.788 -18.0413 -182.386
lowerback -10.8153 2.82685 9.83434
upperback -4.82572 1.29003 8.09175
thorax 1.0873 0.0296705 3.13322
lowerneck -13.7621 -2.77343 3.12287
upperneck 35.0352 -7.32004 -3.0188
head 14.0158 -4.15777 -3.15308
rclavicle 1.19271e-014 -1.52667e-013
rhumerus -30.5814 -11.8438 -59.3657
rradius 46.0501
rwrist -12.8619
rhand -16.7791 -18.7392
rfingers 7.12502
rthumb 9.44852 -48.5074
lclavicle 1.19271e-014 -1.52667e-013
lhumerus -44.7822 4.58324 77.0717
lradius 26.7207
lwrist 46.407
lhand -21.6053 4.02369
lfingers 7.12502
lthumb 4.78991 33.9495
rfemur -55.1747 -1.46062 20.3354
rtibia 46.0732
rfoot -12.1489 -4.94394
rtoes -12.5958
lfemur -42.2787 -9.27887 -19.5767
ltibia 79.32
lfoot -0.572964 -12.0292
ltoes -24.377
206
root 5.66775 15.7365 8.84045 -153.784 -17.6573 -182.61
lowerback -10.6048 2.76766 9.67148
upperback -4.73547 1.26193 8.13549
thorax 1.06215 0.0242828 3.26011
lowerneck -13.8085 -2.71492 3.15917
upperneck 34.9268 -7.2041 -3.04215
head 13.9789 -4.10158 -3.14584
rclavicle 2.46493e-014 -2.54444e-014
rhumerus -30.1987 -11.6488 -59.7723
rradius 46.6098
rwrist -13.5161
rhand -16.8001 -18.2419
rfingers 7.12502
rthumb 9.42823 -48.011
lclavicle 2.46493e-014 -2.54444e-014
lhumerus -44.6591 4.37673 77.3035
lradius 26.2179
lwrist 44.5669
lhand -19.5752 4.18429
lfingers 7.12502
lthumb 6.74995 34.0567
rfemur -54.7073 -1.02132 19.9731
rtibia 45.8128
rfoot -12.2064 -5.22884
rtoes -12.5768
lfemur -43.9296 -9.03642 -20.2052
ltibia 81.3546
lfoot -1.21132 -11.8045
ltoes -25.4768
